<mxfile host="Electron" agent="Mozilla/5.0 (Windows NT 10.0; Win64; x64) AppleWebKit/537.36 (KHTML, like Gecko) draw.io/24.7.17 Chrome/128.0.6613.36 Electron/32.0.1 Safari/537.36" version="24.7.17">
  <diagram name="Pagina-1" id="wls5X6nTpTk0ZmXZYy7-">
    <mxGraphModel dx="676" dy="391" grid="1" gridSize="10" guides="1" tooltips="1" connect="1" arrows="1" fold="1" page="1" pageScale="1" pageWidth="827" pageHeight="1169" math="0" shadow="0">
      <root>
        <mxCell id="0" />
        <mxCell id="1" parent="0" />
        <mxCell id="B984quXXWK_yiGMe5EaE-12" value="" style="group" vertex="1" connectable="0" parent="1">
          <mxGeometry x="200" y="360" width="400" height="40" as="geometry" />
        </mxCell>
        <mxCell id="B984quXXWK_yiGMe5EaE-1" value="" style="rounded=1;whiteSpace=wrap;html=1;fillColor=none;" vertex="1" parent="B984quXXWK_yiGMe5EaE-12">
          <mxGeometry width="400" height="40" as="geometry" />
        </mxCell>
        <mxCell id="B984quXXWK_yiGMe5EaE-2" value="" style="ellipse;whiteSpace=wrap;html=1;aspect=fixed;fillColor=none;" vertex="1" parent="B984quXXWK_yiGMe5EaE-12">
          <mxGeometry x="10" y="10" width="20" height="20" as="geometry" />
        </mxCell>
        <mxCell id="B984quXXWK_yiGMe5EaE-3" value="" style="ellipse;whiteSpace=wrap;html=1;aspect=fixed;fillColor=none;" vertex="1" parent="B984quXXWK_yiGMe5EaE-12">
          <mxGeometry x="50" y="10" width="20" height="20" as="geometry" />
        </mxCell>
        <mxCell id="B984quXXWK_yiGMe5EaE-4" value="" style="ellipse;whiteSpace=wrap;html=1;aspect=fixed;fillColor=none;" vertex="1" parent="B984quXXWK_yiGMe5EaE-12">
          <mxGeometry x="90" y="10" width="20" height="20" as="geometry" />
        </mxCell>
        <mxCell id="B984quXXWK_yiGMe5EaE-5" value="" style="ellipse;whiteSpace=wrap;html=1;aspect=fixed;fillColor=none;" vertex="1" parent="B984quXXWK_yiGMe5EaE-12">
          <mxGeometry x="130" y="10" width="20" height="20" as="geometry" />
        </mxCell>
        <mxCell id="B984quXXWK_yiGMe5EaE-6" value="" style="ellipse;whiteSpace=wrap;html=1;aspect=fixed;fillColor=none;" vertex="1" parent="B984quXXWK_yiGMe5EaE-12">
          <mxGeometry x="170" y="10" width="20" height="20" as="geometry" />
        </mxCell>
        <mxCell id="B984quXXWK_yiGMe5EaE-7" value="" style="ellipse;whiteSpace=wrap;html=1;aspect=fixed;fillColor=none;" vertex="1" parent="B984quXXWK_yiGMe5EaE-12">
          <mxGeometry x="210" y="10" width="20" height="20" as="geometry" />
        </mxCell>
        <mxCell id="B984quXXWK_yiGMe5EaE-8" value="" style="ellipse;whiteSpace=wrap;html=1;aspect=fixed;fillColor=none;" vertex="1" parent="B984quXXWK_yiGMe5EaE-12">
          <mxGeometry x="330" y="10" width="20" height="20" as="geometry" />
        </mxCell>
        <mxCell id="B984quXXWK_yiGMe5EaE-9" value="" style="ellipse;whiteSpace=wrap;html=1;aspect=fixed;fillColor=none;" vertex="1" parent="B984quXXWK_yiGMe5EaE-12">
          <mxGeometry x="370" y="10" width="20" height="20" as="geometry" />
        </mxCell>
        <mxCell id="B984quXXWK_yiGMe5EaE-10" value="" style="ellipse;whiteSpace=wrap;html=1;aspect=fixed;fillColor=none;" vertex="1" parent="B984quXXWK_yiGMe5EaE-12">
          <mxGeometry x="250" y="10" width="20" height="20" as="geometry" />
        </mxCell>
        <mxCell id="B984quXXWK_yiGMe5EaE-11" value="" style="ellipse;whiteSpace=wrap;html=1;aspect=fixed;fillColor=none;" vertex="1" parent="B984quXXWK_yiGMe5EaE-12">
          <mxGeometry x="290" y="10" width="20" height="20" as="geometry" />
        </mxCell>
        <mxCell id="B984quXXWK_yiGMe5EaE-15" value="" style="endArrow=none;html=1;rounded=0;curved=1;" edge="1" parent="B984quXXWK_yiGMe5EaE-12">
          <mxGeometry width="50" height="50" relative="1" as="geometry">
            <mxPoint x="260" y="-10" as="sourcePoint" />
            <mxPoint x="380" y="-10" as="targetPoint" />
            <Array as="points">
              <mxPoint x="270" y="-30" />
              <mxPoint x="270" y="-60" />
              <mxPoint x="320" y="-80" />
              <mxPoint x="370" y="-60" />
              <mxPoint x="370" y="-30" />
            </Array>
          </mxGeometry>
        </mxCell>
        <mxCell id="B984quXXWK_yiGMe5EaE-19" style="edgeStyle=orthogonalEdgeStyle;rounded=0;orthogonalLoop=1;jettySize=auto;html=1;fillColor=#fad9d5;strokeColor=#ae4132;" edge="1" parent="1">
          <mxGeometry relative="1" as="geometry">
            <mxPoint x="230" y="329.86" as="targetPoint" />
            <mxPoint x="200" y="329.86" as="sourcePoint" />
          </mxGeometry>
        </mxCell>
        <mxCell id="B984quXXWK_yiGMe5EaE-13" value="prodotto 2" style="rounded=0;whiteSpace=wrap;html=1;" vertex="1" parent="1">
          <mxGeometry x="240" y="300" width="80" height="60" as="geometry" />
        </mxCell>
        <mxCell id="B984quXXWK_yiGMe5EaE-14" value="prodotto 1" style="rounded=0;whiteSpace=wrap;html=1;" vertex="1" parent="1">
          <mxGeometry x="480" y="300" width="80" height="60" as="geometry" />
        </mxCell>
        <mxCell id="B984quXXWK_yiGMe5EaE-17" value="" style="endArrow=none;html=1;rounded=0;curved=1;" edge="1" parent="1">
          <mxGeometry width="50" height="50" relative="1" as="geometry">
            <mxPoint x="150" y="280" as="sourcePoint" />
            <mxPoint x="430" y="350" as="targetPoint" />
            <Array as="points">
              <mxPoint x="180" y="280" />
              <mxPoint x="230" y="280" />
              <mxPoint x="280" y="280" />
              <mxPoint x="330" y="300" />
              <mxPoint x="330" y="330" />
              <mxPoint x="340" y="350" />
              <mxPoint x="390" y="350" />
              <mxPoint x="410" y="350" />
            </Array>
          </mxGeometry>
        </mxCell>
        <mxCell id="B984quXXWK_yiGMe5EaE-20" style="edgeStyle=orthogonalEdgeStyle;rounded=0;orthogonalLoop=1;jettySize=auto;html=1;fillColor=#fad9d5;strokeColor=#ae4132;" edge="1" parent="1">
          <mxGeometry relative="1" as="geometry">
            <mxPoint x="370" y="329.86" as="targetPoint" />
            <mxPoint x="340" y="329.86" as="sourcePoint" />
          </mxGeometry>
        </mxCell>
        <mxCell id="B984quXXWK_yiGMe5EaE-21" style="edgeStyle=orthogonalEdgeStyle;rounded=0;orthogonalLoop=1;jettySize=auto;html=1;fillColor=#fad9d5;strokeColor=#ae4132;" edge="1" parent="1">
          <mxGeometry relative="1" as="geometry">
            <mxPoint x="460" y="329.86" as="targetPoint" />
            <mxPoint x="430" y="329.86" as="sourcePoint" />
          </mxGeometry>
        </mxCell>
        <mxCell id="B984quXXWK_yiGMe5EaE-24" value="" style="triangle;whiteSpace=wrap;html=1;fillColor=none;rotation=90;" vertex="1" parent="1">
          <mxGeometry x="352.5" y="260" width="95" height="20" as="geometry" />
        </mxCell>
        <mxCell id="B984quXXWK_yiGMe5EaE-25" value="" style="endArrow=classic;startArrow=classic;html=1;rounded=0;fillColor=#b1ddf0;strokeColor=#10739e;" edge="1" parent="1">
          <mxGeometry width="50" height="50" relative="1" as="geometry">
            <mxPoint x="430" y="310" as="sourcePoint" />
            <mxPoint x="430" y="220" as="targetPoint" />
          </mxGeometry>
        </mxCell>
      </root>
    </mxGraphModel>
  </diagram>
</mxfile>
